C:\Users\israe\Dropbox\PhDWork\ExperimentalData\subject1\145\P1S145W06_filtered35.mot
nRows=6
nColumns=28

name C:\Users\israe\Dropbox\PhDWork\ExperimentalData\subject1\145\P1S145W06_filtered35.mot
datacolumns 28
datarows 6
range 0.8250000000 0.8300000000
endheader
time	ground_force_1_vx	ground_force_1_vy	ground_force_1_vz	ground_force_1_px	ground_force_1_py	ground_force_1_pz	ground_moment_1_mx	ground_moment_1_my	ground_moment_1_mz	ground_force_2_vx	ground_force_2_vy	ground_force_2_vz	ground_force_2_px	ground_force_2_py	ground_force_2_pz	ground_moment_2_mx	ground_moment_2_my	ground_moment_2_mz	ground_force_3_vx	ground_force_3_vy	ground_force_3_vz	ground_force_3_px	ground_force_3_py	ground_force_3_pz	ground_moment_3_mx	ground_moment_3_my	ground_moment_3_mz
        0.8250000000	       -0.0000000000	        0.0000000000	       -0.0000000000	        0.2000000000	        0.0000000000	       -0.9030000000	        0.0000000000	       -0.0000000000	       -0.0000000000	      -13.4929736104	      331.2025091997	       -7.8938119192	        0.2000000000	        0.0000000000	       -0.3000000000	       38.9472800908	        4.1431400085	        7.2471191637	       -0.0000000000	        0.0000000000	        0.0000000000	        0.2000000000	       -0.0000000000	        0.3030000000	        0.0000000000	        0.0000000000	       -0.0000000000	
        0.8260000000	       -0.0000000000	        0.0000000000	       -0.0000000000	        0.2000000000	        0.0000000000	       -0.9030000000	        0.0000000000	       -0.0000000000	       -0.0000000000	      -13.6218223726	      332.5160231254	       -8.0088420088	        0.2000000000	        0.0000000000	       -0.3000000000	       39.3757629819	        4.1767908176	        7.3126000815	       -0.0000000000	        0.0000000000	        0.0000000000	        0.2000000000	       -0.0000000000	        0.3030000000	        0.0000000000	        0.0000000000	       -0.0000000000	
        0.8270000000	       -0.0000000000	        0.0000000000	       -0.0000000000	        0.2000000000	        0.0000000000	       -0.9030000000	        0.0000000000	       -0.0000000000	       -0.0000000000	      -13.7561006628	      333.9411569900	       -8.1146792507	        0.2000000000	        0.0000000000	       -0.3000000000	       39.8196788777	        4.2118763554	        7.3788379003	       -0.0000000000	        0.0000000000	        0.0000000000	        0.2000000000	       -0.0000000000	        0.3030000000	        0.0000000000	        0.0000000000	       -0.0000000000	
        0.8280000000	        0.0000000000	        0.0000000000	       -0.0000000000	        0.2000000000	        0.0000000000	       -0.9030000000	        0.0000000000	       -0.0000000000	       -0.0000000000	      -13.8924599985	      335.4763563092	       -8.2118907482	        0.2000000000	        0.0000000000	       -0.3000000000	       40.2780223019	        4.2480627260	        7.4454168940	        0.0000000000	        0.0000000000	        0.0000000000	        0.2000000000	       -0.0000000000	        0.3030000000	        0.0000000000	        0.0000000000	        0.0000000000	
        0.8290000000	        0.0000000000	        0.0000000000	       -0.0000000000	        0.2000000000	        0.0000000000	       -0.9030000000	        0.0000000000	       -0.0000000000	       -0.0000000000	      -14.0271528834	      337.1132044090	       -8.3014298259	        0.2000000000	        0.0000000000	       -0.3000000000	       40.7495658178	        4.2850925169	        7.5123324965	        0.0000000000	        0.0000000000	       -0.0000000000	        0.2000000000	       -0.0000000000	        0.3030000000	       -0.0000000000	       -0.0000000000	        0.0000000000	
        0.8300000000	        0.0000000000	        0.0000000000	       -0.0000000000	        0.2000000000	        0.0000000000	       -0.9030000000	        0.0000000000	        0.0000000000	        0.0000000000	      -14.1571573267	      338.8388557337	       -8.3839785236	        0.2000000000	        0.0000000000	       -0.3000000000	       41.2327177820	        4.3227444802	        7.5800051003	        0.0000000000	        0.0000000000	       -0.0000000000	        0.2000000000	       -0.0000000000	        0.3030000000	       -0.0000000000	       -0.0000000000	        0.0000000000	
